<svg width="47" height="48" viewBox="0 0 47 48" fill="none" xmlns="http://www.w3.org/2000/svg">
<g id="Group">
<path id="Vector" d="M23.4301 48.0002C10.7493 48.0002 0.425781 37.3914 0.425781 24.2767C0.425781 11.1619 10.7493 0.636719 23.4301 0.636719C36.1921 0.636719 46.5156 11.2455 46.5156 24.2767C46.5156 37.3079 36.1921 48.0002 23.4301 48.0002ZM23.3488 15.0045C23.3488 15.0045 25.2184 17.0093 25.2184 18.6799C25.2184 20.4341 23.9178 20.8518 23.4301 20.8518H23.2675C22.7798 20.8518 21.4792 20.4341 21.4792 18.6799C21.4792 17.0093 23.3488 15.0045 23.3488 15.0045ZM6.0346 25.6132H8.14807V21.6036H11.6434V19.9329H8.14807V17.6775H11.806V16.0069H6.0346V25.6132ZM25.2997 15.2551H27.4944L24.8932 5.73226H22.0482L19.3657 15.2551H21.3979L21.9669 13.0832H24.6494L25.2997 15.2551ZM24.3242 11.4961H22.3733L23.2675 7.31939H23.4301L24.3242 11.4961ZM34.0787 20.8518C34.0787 23.6919 35.3793 25.7803 37.9805 25.7803C40.6629 25.7803 41.9635 23.6084 41.9635 20.8518C41.9635 18.0117 40.6629 15.9233 37.9805 15.9233C35.3793 15.9233 34.0787 18.0952 34.0787 20.8518ZM36.3547 20.8518C36.3547 19.0141 36.7612 17.5105 38.0618 17.5105C39.3624 17.5105 39.7688 19.0141 39.7688 20.8518C39.7688 22.6895 39.2811 24.1931 38.0618 24.1931C36.7612 24.1931 36.3547 22.6895 36.3547 20.8518ZM22.4546 45.3271C22.6172 44.4082 22.6985 42.9046 22.6985 41.1504V40.8998C22.6985 38.4774 22.6172 37.642 20.9914 37.0573C18.5528 36.2219 17.4961 33.3818 18.0651 29.8734L9.93638 8.48886C5.70945 12.3314 2.94568 18.0117 2.94568 24.2767C2.94568 35.5537 11.6434 44.8259 22.4546 45.3271ZM23.4301 31.7111C20.1786 30.9593 18.9593 27.8686 18.9593 25.1955L11.806 6.98526C11.3183 7.31939 10.9118 7.65352 10.4241 8.07119C12.0499 11.9137 19.1218 29.2051 19.1218 29.2051C20.3411 32.2959 22.6985 31.2935 23.1862 33.883C23.3488 34.4677 23.3488 34.8019 23.3488 34.8019H23.5926C23.5926 34.8019 23.5926 34.5513 23.7552 33.883C24.3242 31.2935 26.6003 32.3794 27.8196 29.2051C27.8196 29.2051 34.8916 11.9137 36.5173 8.07119C36.1109 7.73706 35.6231 7.31939 35.1354 6.98526L27.9821 25.112C27.9821 27.8686 26.7628 30.8758 23.4301 31.7111ZM23.4301 26.1979C22.0482 25.8638 20.3411 24.4437 20.0973 22.6895C20.016 22.0213 19.9347 21.7707 20.016 20.4341L13.7569 5.73226C13.2692 5.98286 12.7814 6.31699 12.2937 6.65112C14.1633 10.9949 19.9347 24.2767 19.9347 24.2767C20.8289 26.2815 22.4546 26.2815 23.0236 27.4509C23.3488 28.1192 23.3488 28.7875 23.4301 28.7875H23.6739C23.6739 28.7039 23.6739 28.1192 24.0804 27.4509C24.6494 26.2815 26.1938 26.1979 27.1693 24.2767C27.1693 24.2767 32.9407 10.9949 34.8103 6.65112C34.3225 6.31699 33.8348 5.98286 33.3471 5.73226L27.088 20.3506C27.1693 21.6871 27.088 21.9377 27.0067 22.606C26.6003 24.4437 24.8932 25.8638 23.4301 26.1979ZM23.5113 23.6919L23.5926 22.8566C23.9991 21.0189 25.2997 21.2695 26.1938 19.4317C26.1938 19.3482 30.6646 9.57479 32.5342 5.48166C29.7705 4.06159 26.6815 3.22625 23.4301 3.22625C20.1786 3.22625 17.0084 4.06159 14.3259 5.48166C16.1955 9.57479 20.6663 19.4317 20.6663 19.4317C21.5605 21.2695 22.861 21.0189 23.2675 22.8566L23.3488 23.6919H23.5113ZM43.9957 24.2767C43.9957 18.0117 41.3132 12.3314 37.005 8.48886L28.795 29.9569C29.364 33.4653 28.3073 36.3055 25.8687 37.1408C24.2429 37.642 24.1616 38.4774 24.1616 40.9834V41.234C24.1616 42.9882 24.3242 44.4918 24.4055 45.4106C35.298 44.8259 43.9957 35.5537 43.9957 24.2767ZM9.44866 30.5417L10.0177 31.7111C10.2615 32.2123 10.5867 32.7135 10.5867 32.7135L10.0177 33.0477C10.0177 33.0477 9.61123 32.3794 9.2048 31.5441C9.12351 31.6276 8.47321 31.9617 8.31064 31.9617C8.39193 32.0453 9.04222 33.3818 9.04222 33.3818L8.5545 33.7159C8.5545 33.7159 7.9042 32.3794 7.82292 32.2959C7.74163 32.3794 6.27846 33.1312 6.27846 33.1312L5.95331 32.3794L9.44866 30.5417ZM11.6434 34.1336L12.1311 34.7183L9.12351 37.3079L8.63579 36.7232L11.6434 34.1336ZM14.4072 36.8067L14.9762 37.2243L14.2446 41.4846L13.5943 41.0669C13.5943 41.0669 13.7569 40.2316 13.7569 40.148C13.7569 40.148 13.3504 39.8974 12.944 39.5633C12.5376 39.3127 12.2124 38.9785 12.1311 38.895C12.0499 38.9785 11.3183 39.3962 11.3183 39.3962L10.7493 38.895L14.4072 36.8067ZM12.6189 38.6444C12.7001 38.728 12.944 38.895 13.1879 39.1456C13.4317 39.3127 13.7569 39.4798 13.8382 39.5633C13.8382 39.3962 14.1633 37.9762 14.2446 37.7256C14.0007 37.8091 12.7814 38.5609 12.6189 38.6444ZM16.8458 38.3938C16.8458 38.3938 17.4961 38.728 18.3903 39.0621C19.0406 39.3127 19.5283 39.4798 20.016 39.5633L19.8534 40.148C19.8534 40.148 19.3657 40.0645 18.5528 39.8139C18.4715 39.981 17.4961 42.9882 17.4961 42.9882L16.7645 42.7376C16.7645 42.7376 17.8212 39.7304 17.8212 39.5633C17.0897 39.3127 16.6019 38.9786 16.6019 38.9786L16.8458 38.3938ZM29.2015 39.2292C29.4453 39.3962 29.6079 39.6468 29.7705 39.981C29.8517 40.148 29.8517 40.2316 29.8517 40.3986C29.8517 40.9834 29.4453 41.401 28.795 41.6516C28.795 41.6516 28.4699 41.7352 28.3073 41.8187C28.3073 41.9858 28.795 43.3223 28.795 43.3223L28.0634 43.4058L26.9254 39.5633L27.9821 39.2292C28.4699 39.0621 28.8763 39.0621 29.2015 39.2292ZM27.7383 39.8974C27.7383 39.981 28.0634 40.9834 28.0634 41.0669C28.226 40.9834 28.5512 40.8998 28.5512 40.8998C28.6324 40.8998 28.8763 40.7328 29.0389 40.5657C29.0389 40.4822 29.1202 40.3986 29.1202 40.3151V40.148C29.0389 39.981 28.9576 39.8974 28.8763 39.8139C28.6324 39.7304 28.3886 39.7304 28.226 39.8139C28.1447 39.8139 27.8196 39.8974 27.7383 39.8974ZM31.4775 37.5585L34.8916 40.0645L34.3225 40.4822C34.3225 40.4822 33.6722 39.981 33.591 39.8974C33.591 39.8974 33.1845 40.148 32.8594 40.3986C32.5342 40.6492 32.1278 40.8163 32.0465 40.8163C32.0465 40.8998 32.2091 41.7352 32.2091 41.7352L31.5588 42.0693L30.9898 37.8091L31.4775 37.5585ZM31.8839 40.2316C31.9652 40.148 32.2091 40.0645 32.5342 39.8974C32.7781 39.7304 32.9407 39.6468 33.0219 39.5633C32.8594 39.4798 31.8026 38.6444 31.6401 38.4774C31.6401 38.728 31.8839 40.0645 31.8839 40.2316ZM35.3793 34.0501L38.3056 36.7232L37.8179 37.3914C37.8179 37.3914 35.0541 36.5561 34.6477 36.4725C34.9728 36.8067 36.6799 38.6444 36.6799 38.6444L36.1109 39.0621L33.3471 36.1384L33.9974 35.5537C33.9974 35.5537 36.6799 36.389 37.0863 36.4725C36.7612 36.1384 34.8916 34.5513 34.8916 34.5513L35.3793 34.0501ZM36.6799 31.9617L40.0939 33.9665L39.7688 34.5513L36.3547 32.5465L36.6799 31.9617ZM38.2243 28.6204L38.7933 28.9545L38.7121 29.0381C38.5495 29.2887 38.4682 29.3722 38.3056 29.7063C38.2243 29.7899 38.2243 30.0405 38.3056 30.2075C38.3869 30.2911 38.4682 30.3746 38.5495 30.3746C38.7933 30.4581 39.0372 30.2075 39.2811 29.9569C39.6062 29.5393 40.0939 29.1216 40.8255 29.3722C41.5571 29.6228 41.801 30.2911 41.4758 31.2099C41.3945 31.4605 41.232 31.7111 41.0694 31.9617V32.0453L40.5004 31.7947L40.5817 31.7111C40.6629 31.6276 40.9068 31.2935 40.9881 31.0429C41.0694 30.7923 41.0694 30.2911 40.6629 30.2075C40.3378 30.124 40.0939 30.3746 39.7688 30.6252C39.4436 30.9593 39.0372 31.4605 38.3869 31.2099C38.0618 31.1264 37.8992 30.9593 37.7366 30.7087C37.574 30.3746 37.574 30.0405 37.7366 29.6228C37.8179 29.2051 37.9805 28.871 38.2243 28.6204Z" fill="white"/>
</g>
</svg>
