<svg width="82" height="20" viewBox="0 0 82 20" fill="none" xmlns="http://www.w3.org/2000/svg">
<g id="stamen 2" clip-path="url(#clip0_650_2932)">
<path id="Vector" d="M3.85253 13.7769C3.93468 14.5649 4.18113 15.1778 4.50973 15.6156C5.08478 16.3161 6.07058 16.7538 7.54928 16.7538C8.37079 16.7538 9.11014 16.6663 9.60304 16.4912C10.5888 16.1409 11.0817 15.4405 11.0817 14.3898C11.0817 13.7769 10.8353 13.3391 10.3424 12.9889C9.84949 12.6386 9.02799 12.376 7.96003 12.1133L6.15273 11.6755C4.34543 11.2377 3.11318 10.7999 2.45598 10.2746C1.30588 9.48656 0.730825 8.1732 0.730825 6.42205C0.730825 4.84601 1.30588 3.44509 2.37383 2.3944C3.52393 1.3437 5.16693 0.818359 7.38498 0.818359C9.19229 0.818359 10.7531 1.34371 11.9854 2.30684C13.2998 3.35753 13.957 4.75845 13.957 6.68472H10.5888C10.5067 5.63403 10.0959 4.84601 9.19229 4.40822C8.61724 4.05799 7.96003 3.97043 7.13853 3.97043C6.23488 3.97043 5.49553 4.14555 4.92048 4.58334C4.34543 5.02112 4.09898 5.54647 4.09898 6.24693C4.09898 6.85983 4.34543 7.38518 4.92048 7.64785C5.16693 7.82297 5.98843 8.08564 7.13853 8.34831L10.0959 9.13633C11.4103 9.48656 12.3961 9.92435 13.0533 10.4497C14.0391 11.3253 14.532 12.5511 14.532 14.1271C14.532 15.7907 13.957 17.1041 12.7247 18.2423C11.4925 19.293 9.84949 19.9059 7.63143 19.9059C5.41338 19.9059 3.68823 19.3806 2.37383 18.3299C1.14158 17.1916 0.484375 15.7032 0.484375 13.7769H3.85253Z" fill="white"/>
<path id="Vector_2" d="M14.9414 8.61097V6.15935H16.6666V2.48193H19.8704V6.15935H21.9242V8.61097H19.8704V15.6156C19.8704 16.1409 19.9526 16.4912 20.0347 16.6663C20.199 16.8414 20.5276 16.8414 21.267 16.8414C21.3491 16.8414 21.4313 16.8414 21.5956 16.8414C21.6777 16.8414 21.842 16.8414 21.9242 16.8414V19.4681L20.3633 19.5557C18.8025 19.6432 17.7345 19.293 17.1595 18.6801C16.8309 18.2423 16.5844 17.6294 16.5844 16.8414V8.61097H14.9414Z" fill="white"/>
<path id="Vector_3" d="M29.0709 11.2378C29.646 11.1503 30.1389 11.0627 30.3853 10.9751C30.8782 10.8 31.1247 10.4498 31.1247 10.012C31.1247 9.48666 30.9604 9.04887 30.5496 8.87375C30.1389 8.69864 29.646 8.52352 28.9888 8.52352C28.1673 8.52352 27.6744 8.69864 27.3458 9.13643C27.0993 9.3991 26.935 9.83689 26.8529 10.3622H23.7312C23.8133 9.22398 24.1419 8.26085 24.6348 7.47283C25.5385 6.33458 27.0172 5.72168 29.0709 5.72168C30.4675 5.72168 31.6997 5.98435 32.7677 6.59726C33.8356 7.21016 34.3285 8.26085 34.3285 9.83689V15.9659C34.3285 16.4037 34.3285 16.9291 34.3285 17.542C34.3285 17.9797 34.4107 18.33 34.4928 18.5051C34.575 18.6802 34.7393 18.7678 34.9857 18.9429V19.4682H31.4533C31.3711 19.2055 31.289 18.9429 31.2068 18.6802C31.2068 18.4175 31.1247 18.1549 31.1247 17.8922C30.6318 18.4175 30.1389 18.8553 29.5638 19.2056C28.8245 19.6433 28.0851 19.8185 27.1815 19.8185C26.0314 19.8185 25.1277 19.4682 24.3884 18.7678C23.649 18.0673 23.2383 17.1042 23.2383 15.8784C23.2383 14.2148 23.8133 13.0765 25.0456 12.2885C25.7028 11.8507 26.6886 11.588 27.9208 11.4129L29.0709 11.2378ZM31.0425 12.9014C30.7961 13.0765 30.6318 13.1641 30.3853 13.2516C30.1389 13.3392 29.8924 13.4267 29.4817 13.5143L28.7423 13.6894C28.0851 13.777 27.5101 13.9521 27.2636 14.1272C26.7707 14.4774 26.5243 14.9152 26.5243 15.6157C26.5243 16.2286 26.6886 16.6664 27.0172 16.9291C27.3458 17.1917 27.6744 17.3668 28.1673 17.3668C28.9066 17.3668 29.5638 17.1042 30.1389 16.6664C30.7139 16.2286 31.0425 15.4406 31.0425 14.2148V12.9014Z" fill="white"/>
<path id="Vector_4" d="M52.3196 6.07191C52.8946 6.33458 53.3054 6.68481 53.7983 7.29772C54.1269 7.7355 54.3733 8.34841 54.5376 9.04887C54.6198 9.48666 54.6198 10.1871 54.6198 10.9751V19.3807H51.2516V10.8876C51.2516 10.3622 51.1695 9.92444 51.0052 9.66177C50.6766 9.04887 50.1837 8.69864 49.3622 8.69864C48.4585 8.69864 47.8013 9.13643 47.4727 9.92444C47.3084 10.3622 47.2263 10.8876 47.2263 11.4129V19.3807H43.9403V11.4129C43.9403 10.6249 43.8581 10.012 43.6938 9.66177C43.4474 9.04887 42.8723 8.69864 42.0508 8.69864C41.1472 8.69864 40.49 9.04887 40.1614 9.66177C39.9971 10.012 39.9149 10.5373 39.9149 11.3254V19.3807H36.6289V6.07191H39.8328V7.99818C40.2435 7.29772 40.6543 6.77237 40.9829 6.5097C41.6401 5.98435 42.4616 5.72168 43.4474 5.72168C44.4332 5.72168 45.1725 5.98435 45.7476 6.42214C46.2405 6.85993 46.5691 7.38527 46.8155 7.99818C47.2263 7.21016 47.8013 6.59726 48.3764 6.24703C49.0336 5.89679 49.7729 5.72168 50.5944 5.72168C51.1695 5.72168 51.7445 5.89679 52.3196 6.07191Z" fill="white"/>
<path id="Vector_5" d="M65.3024 6.33458C66.206 6.77237 66.8632 7.38527 67.4383 8.34841C67.9312 9.13643 68.2598 10.0996 68.4241 11.0627C68.5062 11.6756 68.5884 12.5512 68.5062 13.6894H59.3876C59.4697 15.0028 59.8805 15.9659 60.702 16.4913C61.1949 16.8415 61.7699 17.0166 62.5093 17.0166C63.2486 17.0166 63.8237 16.8415 64.3166 16.4037C64.563 16.141 64.8095 15.8784 64.9738 15.5281H68.3419C68.2598 16.3161 67.849 17.1042 67.1097 17.9797C65.9596 19.2931 64.3987 19.906 62.4271 19.906C60.7841 19.906 59.3054 19.3807 57.991 18.2424C56.6766 17.1042 56.1016 15.353 56.1016 12.9014C56.1016 10.6249 56.6766 8.7862 57.8267 7.56039C58.9768 6.33458 60.4555 5.72168 62.2628 5.72168C63.4129 5.72168 64.3987 5.8968 65.3024 6.33458ZM60.3734 9.31154C59.8805 9.83689 59.634 10.5373 59.4697 11.4129H65.1381C65.0559 10.4498 64.8095 9.74933 64.2344 9.31154C63.6594 8.87375 63.0843 8.61108 62.2628 8.61108C61.4413 8.52352 60.8663 8.7862 60.3734 9.31154Z" fill="white"/>
<path id="Vector_6" d="M80.2529 6.77237C81.0744 7.47283 81.4851 8.69864 81.4851 10.3622V19.3807H78.117V11.2378C78.117 10.5373 78.0348 10.012 77.8705 9.66177C77.5419 8.96131 76.9669 8.61108 76.0632 8.61108C74.9953 8.61108 74.1738 9.13643 73.763 10.0996C73.5987 10.6249 73.4344 11.3254 73.4344 12.2009V19.3807H70.1484V6.07191H73.3523V7.99818C73.763 7.29772 74.1738 6.85993 74.5024 6.5097C75.2417 5.98435 76.0632 5.72168 77.1312 5.72168C78.3634 5.72168 79.4314 6.07191 80.2529 6.77237Z" fill="white"/>
</g>
<defs>
<clipPath id="clip0_650_2932">
<rect width="81" height="19" fill="white" transform="translate(0.484375 0.818359)"/>
</clipPath>
</defs>
</svg>
