<svg width="13" height="12" viewBox="0 0 13 12" fill="none" xmlns="http://www.w3.org/2000/svg">
<path id="Vector" d="M8.40408 6.00409L12.7041 1.71409C12.8924 1.52579 12.9982 1.27039 12.9982 1.00409C12.9982 0.73779 12.8924 0.482395 12.7041 0.294092C12.5158 0.105788 12.2604 0 11.9941 0C11.7278 0 11.4724 0.105788 11.2841 0.294092L6.99408 4.59409L2.70408 0.294092C2.51578 0.105788 2.26038 -1.9841e-09 1.99408 0C1.72778 1.9841e-09 1.47238 0.105788 1.28408 0.294092C1.09578 0.482395 0.989988 0.73779 0.989988 1.00409C0.989988 1.27039 1.09578 1.52579 1.28408 1.71409L5.58408 6.00409L1.28408 10.2941C1.19035 10.3871 1.11596 10.4977 1.06519 10.6195C1.01442 10.7414 0.988281 10.8721 0.988281 11.0041C0.988281 11.1361 1.01442 11.2668 1.06519 11.3887C1.11596 11.5105 1.19035 11.6211 1.28408 11.7141C1.37704 11.8078 1.48764 11.8822 1.6095 11.933C1.73136 11.9838 1.86207 12.0099 1.99408 12.0099C2.12609 12.0099 2.2568 11.9838 2.37866 11.933C2.50052 11.8822 2.61112 11.8078 2.70408 11.7141L6.99408 7.41409L11.2841 11.7141C11.377 11.8078 11.4876 11.8822 11.6095 11.933C11.7314 11.9838 11.8621 12.0099 11.9941 12.0099C12.1261 12.0099 12.2568 11.9838 12.3787 11.933C12.5005 11.8822 12.6111 11.8078 12.7041 11.7141C12.7978 11.6211 12.8722 11.5105 12.923 11.3887C12.9737 11.2668 12.9999 11.1361 12.9999 11.0041C12.9999 10.8721 12.9737 10.7414 12.923 10.6195C12.8722 10.4977 12.7978 10.3871 12.7041 10.2941L8.40408 6.00409Z" fill="#7E899C"/>
</svg>
