<svg width="17" height="17" viewBox="0 0 17 17" fill="none" xmlns="http://www.w3.org/2000/svg">
<path id="Vector" d="M9.29618 13.359C9.42107 13.484 9.49123 13.6534 9.49123 13.83C9.49123 14.0067 9.42107 14.1761 9.29618 14.3011L8.46808 15.134C7.59235 16.009 6.40482 16.5004 5.16673 16.5C3.92865 16.4996 2.74143 16.0075 1.86624 15.1319C0.991062 14.2563 0.49961 13.069 0.5 11.8312C0.500391 10.5933 0.992593 9.40631 1.86833 8.53129L3.87774 6.52224C4.71891 5.68056 5.84998 5.19209 7.03952 5.15678C8.22905 5.12148 9.38711 5.54201 10.2767 6.33233C10.3424 6.39052 10.3959 6.46107 10.4343 6.53995C10.4726 6.61882 10.4951 6.70448 10.5004 6.79204C10.5056 6.8796 10.4936 6.96733 10.4649 7.05023C10.4363 7.13314 10.3916 7.20959 10.3334 7.27522C10.2752 7.34085 10.2046 7.39437 10.1257 7.43274C10.0468 7.4711 9.96115 7.49355 9.87358 7.49881C9.78601 7.50407 9.69826 7.49204 9.61534 7.46339C9.53242 7.43474 9.45596 7.39005 9.39032 7.33185C8.75493 6.76771 7.92799 6.46756 7.0786 6.4928C6.22922 6.51804 5.42156 6.86675 4.82081 7.46762L2.81139 9.47418C2.18632 10.0991 1.83516 10.9467 1.83516 11.8306C1.83516 12.7144 2.18632 13.562 2.81139 14.187C3.43645 14.8119 4.28423 15.163 5.1682 15.163C6.05218 15.163 6.89995 14.8119 7.52502 14.187L8.35312 13.359C8.41501 13.2971 8.48852 13.2479 8.56943 13.2144C8.65034 13.1808 8.73706 13.1636 8.82465 13.1636C8.91223 13.1636 8.99896 13.1808 9.07987 13.2144C9.16077 13.2479 9.23428 13.2971 9.29618 13.359ZM15.1345 1.86444C14.2586 0.990697 13.0719 0.5 11.8346 0.5C10.5973 0.5 9.41059 0.990697 8.53473 1.86444L7.70664 2.69321C7.58169 2.81825 7.51154 2.98779 7.51162 3.16453C7.51169 3.34128 7.582 3.51076 7.70705 3.63568C7.83211 3.76061 8.00168 3.83074 8.17846 3.83067C8.35524 3.83059 8.52475 3.7603 8.6497 3.63527L9.47779 2.80732C10.1029 2.18237 10.9506 1.83128 11.8346 1.83128C12.7186 1.83128 13.5664 2.18237 14.1914 2.80732C14.8165 3.43228 15.1676 4.27989 15.1676 5.16371C15.1676 6.04753 14.8165 6.89515 14.1914 7.5201L12.182 9.53082C11.5809 10.1313 10.7731 10.4796 9.92371 10.5044C9.07433 10.5291 8.24757 10.2286 7.6125 9.66409C7.47993 9.54656 7.30609 9.48651 7.12923 9.49713C6.95238 9.50775 6.78698 9.58818 6.66944 9.72073C6.55189 9.85327 6.49182 10.0271 6.50245 10.2039C6.51307 10.3807 6.59352 10.5461 6.72609 10.6636C7.61549 11.4541 8.77343 11.875 9.96297 11.84C11.1525 11.805 12.2837 11.3168 13.1251 10.4754L15.1345 8.46632C16.0089 7.59055 16.5 6.40366 16.5 5.16621C16.5 3.92876 16.0089 2.74187 15.1345 1.8661V1.86444Z" fill="#E1DCD5"/>
</svg>
