<svg width="16" height="16" viewBox="0 0 16 16" fill="none" xmlns="http://www.w3.org/2000/svg">
<rect width="16" height="16" rx="8" fill="#3E3D45"/>
<path d="M7.36 9.01C7.30667 9.01 7.26 8.99 7.22 8.95C7.18 8.91 7.16 8.86333 7.16 8.81C7.16 8.76333 7.16 8.71667 7.16 8.67C7.16 8.62333 7.16 8.57667 7.16 8.53C7.19333 8.28333 7.26667 8.06333 7.38 7.87C7.5 7.67 7.63667 7.48667 7.79 7.32C7.95 7.15333 8.10667 7 8.26 6.86C8.41333 6.71333 8.54333 6.56667 8.65 6.42C8.75667 6.27333 8.81333 6.12667 8.82 5.98C8.84 5.80667 8.80667 5.66333 8.72 5.55C8.64 5.43 8.52667 5.34 8.38 5.28C8.24 5.21333 8.09 5.18 7.93 5.18C7.63667 5.18 7.4 5.25333 7.22 5.4C7.04667 5.54 6.92667 5.75667 6.86 6.05C6.83333 6.12333 6.79667 6.18 6.75 6.22C6.70333 6.26 6.64 6.28 6.56 6.28H5.52C5.46 6.28 5.40667 6.25667 5.36 6.21C5.31333 6.16333 5.29 6.10333 5.29 6.03C5.29667 5.76333 5.36 5.50333 5.48 5.25C5.6 4.99667 5.77667 4.77 6.01 4.57C6.24333 4.36333 6.52667 4.2 6.86 4.08C7.19333 3.96 7.58 3.9 8.02 3.9C8.5 3.9 8.89667 3.96 9.21 4.08C9.53 4.2 9.78333 4.35667 9.97 4.55C10.1633 4.73667 10.3 4.94 10.38 5.16C10.46 5.37333 10.4933 5.57667 10.48 5.77C10.4733 6.01667 10.42 6.24 10.32 6.44C10.2267 6.63333 10.11 6.81333 9.97 6.98C9.83667 7.14667 9.69333 7.31 9.54 7.47C9.39333 7.62333 9.26 7.78 9.14 7.94C9.02667 8.1 8.94333 8.26667 8.89 8.44C8.87667 8.49333 8.86333 8.54667 8.85 8.6C8.84333 8.64667 8.83667 8.69667 8.83 8.75C8.79667 8.83667 8.76 8.90333 8.72 8.95C8.68 8.99 8.62 9.01 8.54 9.01H7.36ZM7.36 11C7.28667 11 7.22667 10.9767 7.18 10.93C7.13333 10.8833 7.11 10.8233 7.11 10.75V9.75C7.11 9.68333 7.13333 9.62667 7.18 9.58C7.22667 9.52667 7.28667 9.5 7.36 9.5H8.48C8.54667 9.5 8.60333 9.52667 8.65 9.58C8.70333 9.62667 8.73 9.68333 8.73 9.75V10.75C8.73 10.8233 8.70333 10.8833 8.65 10.93C8.60333 10.9767 8.54667 11 8.48 11H7.36Z" fill="#E1DCD5"/>
</svg>
