<svg width="18" height="19" viewBox="0 0 18 19" fill="none" xmlns="http://www.w3.org/2000/svg">
<g id="Group">
<path id="Vector" d="M0.333349 6.68798L8.25336 11.728C8.37145 11.8029 8.50608 11.8403 8.64 11.8403C8.77463 11.8403 8.90855 11.8029 9.02664 11.728L16.9467 6.68798C17.154 6.55551 17.28 6.32656 17.28 6.08032C17.28 5.83408 17.154 5.60511 16.9467 5.47336L9.02661 0.432624C8.79046 0.282875 8.48948 0.282875 8.25333 0.432624L0.333349 5.47336C0.125989 5.60511 6.77722e-09 5.83408 6.77722e-09 6.08032C-3.37432e-05 6.32656 0.125989 6.55551 0.333349 6.68798Z" fill="#E1DCD5"/>
<path id="Vector_2" d="M16.9466 12.3137L14.7168 10.8945L9.79992 14.0237C9.45071 14.2447 9.0504 14.3613 8.64 14.3613C8.2296 14.3613 7.82929 14.2447 7.48224 14.0244L2.56318 10.8945L0.333349 12.3137C0.125989 12.4461 0 12.6751 0 12.9213C0 13.1676 0.125989 13.3965 0.333349 13.5283L8.25336 18.569C8.37145 18.6439 8.50537 18.6813 8.64 18.6813C8.77392 18.6813 8.90855 18.6439 9.02664 18.569L16.9466 13.5283C17.154 13.3965 17.28 13.1676 17.28 12.9213C17.28 12.6751 17.154 12.4461 16.9466 12.3137Z" fill="#E1DCD5"/>
</g>
</svg>
