<svg width="18" height="20" viewBox="0 0 18 20" fill="none" xmlns="http://www.w3.org/2000/svg">
<g id="Group">
<path id="Vector" d="M0.692724 7.1875L8.61274 12.2275C8.73083 12.3024 8.86546 12.3398 8.99938 12.3398C9.134 12.3398 9.26792 12.3024 9.38601 12.2275L17.306 7.1875C17.5134 7.05503 17.6394 6.82607 17.6394 6.57983C17.6394 6.33359 17.5134 6.10463 17.306 5.97287L9.38598 0.932136C9.14983 0.782387 8.84885 0.782387 8.6127 0.932136L0.692724 5.97287C0.485364 6.10463 0.359375 6.33359 0.359375 6.57983C0.359341 6.82607 0.485364 7.05503 0.692724 7.1875Z" fill="#17191B"/>
<path id="Vector_2" d="M17.306 12.8122L15.0762 11.3931L10.1593 14.5222C9.81008 14.7432 9.40977 14.8599 8.99937 14.8599C8.58897 14.8599 8.18867 14.7432 7.84161 14.5229L2.92255 11.3931L0.692724 12.8122C0.485364 12.9447 0.359375 13.1736 0.359375 13.4199C0.359375 13.6661 0.485364 13.8951 0.692724 14.0268L8.61273 19.0675C8.73083 19.1424 8.86475 19.1799 8.99937 19.1799C9.13329 19.1799 9.26792 19.1424 9.38601 19.0675L17.306 14.0268C17.5134 13.8951 17.6393 13.6661 17.6393 13.4199C17.6394 13.1736 17.5134 12.9447 17.306 12.8122Z" fill="#17191B"/>
</g>
</svg>
