<svg width="11" height="11" viewBox="0 0 11 11" fill="none" xmlns="http://www.w3.org/2000/svg">
<path d="M8.862 4.176L10.094 5.954C9.35667 6.39267 8.69867 6.83133 8.12 7.27C7.54133 7.69933 7.01867 8.14733 6.552 8.614C6.09467 9.07133 5.67467 9.56133 5.292 10.084H5.208C4.82533 9.56133 4.40067 9.07133 3.934 8.614C3.47667 8.14733 2.95867 7.69933 2.38 7.27C1.81067 6.83133 1.15267 6.39267 0.406 5.954L1.638 4.176C2.24467 4.57733 2.772 4.99733 3.22 5.436C3.668 5.86533 4.04133 6.304 4.34 6.752C4.648 7.2 4.89533 7.634 5.082 8.054C5.26867 8.474 5.404 8.86133 5.488 9.216H5.012C5.096 8.86133 5.23133 8.474 5.418 8.054C5.60467 7.634 5.84733 7.2 6.146 6.752C6.454 6.304 6.832 5.86533 7.28 5.436C7.728 4.99733 8.25533 4.57733 8.862 4.176ZM6.44 0.76V4.05C6.44 4.81533 6.39333 5.53867 6.3 6.22C6.216 6.90133 6.104 7.536 5.964 8.124L5.25 9.3L4.536 8.124C4.396 7.536 4.27933 6.90133 4.186 6.22C4.102 5.53867 4.06 4.81533 4.06 4.05V0.76H6.44Z" fill="#EA991E"/>
</svg>
