<svg width="11" height="10" viewBox="0 0 11 10" fill="none" xmlns="http://www.w3.org/2000/svg">
<path d="M1.638 6.584L0.406 4.806C1.14333 4.358 1.80133 3.91933 2.38 3.49C2.95867 3.06067 3.47667 2.61733 3.934 2.16C4.40067 1.69333 4.82067 1.19867 5.194 0.676H5.278C5.66067 1.19867 6.08067 1.69333 6.538 2.16C7.00467 2.61733 7.52733 3.06067 8.106 3.49C8.694 3.91933 9.352 4.358 10.08 4.806L8.848 6.584C8.24133 6.18267 7.714 5.76733 7.266 5.338C6.82733 4.89933 6.454 4.456 6.146 4.008C5.838 3.56 5.59067 3.126 5.404 2.706C5.21733 2.286 5.082 1.89867 4.998 1.544H5.474C5.39 1.89867 5.25467 2.286 5.068 2.706C4.89067 3.126 4.648 3.56 4.34 4.008C4.032 4.456 3.654 4.89933 3.206 5.338C2.758 5.76733 2.23533 6.18267 1.638 6.584ZM4.046 10V6.71C4.046 5.94467 4.09267 5.22133 4.186 4.54C4.27933 3.84933 4.39133 3.21467 4.522 2.636L5.236 1.46L5.95 2.636C6.09933 3.21467 6.216 3.84933 6.3 4.54C6.384 5.22133 6.426 5.94467 6.426 6.71V10H4.046Z" fill="#20EA62"/>
</svg>
