<svg width="11" height="25" viewBox="0 0 11 25" fill="none" xmlns="http://www.w3.org/2000/svg">
<path id="Vector" d="M5.30001 21.3H0.5V23.7C0.5 24.14 0.86003 24.5 1.30003 24.5H9.3C9.74001 24.5 10.1 24.14 10.1 23.7V1.29999C10.1 0.859985 9.74 0.5 9.3 0.5H1.30003C0.86003 0.5 0.5 0.859985 0.5 1.29999V3.7H5.30001C5.74002 3.7 6.1 4.05998 6.1 4.49998C6.1 4.93999 5.74002 5.29997 5.30001 5.29997H0.5V7.69998H3.55603C3.99603 7.69998 4.35602 8.06001 4.35602 8.49997C4.35602 8.93997 3.99603 9.3 3.55603 9.3H0.5V11.7H5.30001C5.74002 11.7 6.1 12.06 6.1 12.5C6.1 12.9399 5.74002 13.3 5.30001 13.3H0.5V15.7H3.55603C3.99603 15.7 4.35602 16.06 4.35602 16.5C4.35602 16.94 3.99603 17.3 3.55603 17.3H0.5V19.7H5.30001C5.74002 19.7 6.1 20.06 6.1 20.5C6.1 20.94 5.74002 21.3 5.30001 21.3Z" fill="#616977"/>
</svg>
